<?xml version="1.0" encoding="utf-8"?>
<!-- Generator: Adobe Illustrator 16.0.0, SVG Export Plug-In . SVG Version: 6.00 Build 0)  -->
<!DOCTYPE svg PUBLIC "-//W3C//DTD SVG 1.1//EN" "http://www.w3.org/Graphics/SVG/1.1/DTD/svg11.dtd">
<svg version="1.1" id="Capa_1" xmlns="http://www.w3.org/2000/svg" xmlns:xlink="http://www.w3.org/1999/xlink" x="0px" y="0px"
	 width="544.251px" height="544.251px" viewBox="0 0 544.251 544.251" enable-background="new 0 0 544.251 544.251"
	 xml:space="preserve">
<circle fill="#FCC10E" cx="272.187" cy="271.23" r="272.125"/>
<path opacity="0.2" d="M537.422,210.295l-93.854-93.849L100.807,360.008l183.085,183.084c65.691-2.811,130.56-29.282,180.719-79.441
	C533.351,394.911,557.61,298.548,537.422,210.295z"/>
<g>
	<g>
		<path d="M420.41,106.798c8.744,0,16.465,3.222,23.158,9.65c6.682,6.441,10.038,14.028,10.037,22.774V336.85
			c0,8.758-3.354,16.479-10.036,23.159c-6.694,6.696-14.415,10.035-23.159,10.035H305.384v33.195l32.422,0.001l0.002,32.423
			l-131.24,0.001l0.001-32.424l32.421-0.001v-33.195l-115.025,0.001c-8.757-0.001-16.478-3.34-23.16-10.036
			c-6.694-6.681-10.035-14.401-10.036-23.16V139.222c0-8.746,3.341-16.333,10.036-22.774c6.683-6.428,14.402-9.65,23.16-9.651
			L420.41,106.798z"/>
	</g>
	<path fill="#FFFFFF" d="M340.536,247.286l19.343,15.045c2.002,1.437,2.291,3.438,0.86,6.018l-18.484,31.809
		c-1.146,2.009-3.008,2.578-5.586,1.72l-22.782-9.029c-6.019,4.301-11.178,7.311-15.475,9.028l-3.438,24.071
		c-0.578,2.58-2.01,3.87-4.299,3.87h-36.968c-2.299-0.001-3.728-1.291-4.299-3.87l-3.439-24.071
		c-5.446-2.29-10.604-5.298-15.474-9.027l-22.782,9.028c-2.578,0.859-4.445,0.289-5.587-1.72l-18.483-31.809
		c-1.439-2.579-1.15-4.581,0.859-6.018l19.343-15.044c-0.289-2.002-0.43-5.01-0.43-9.028c0-4.008,0.141-7.018,0.43-9.026
		l-19.343-15.043c-2.009-1.431-2.297-3.44-0.86-6.019l18.483-31.81c1.143-2,3.009-2.579,5.589-1.718l22.782,9.027
		c6.017-4.299,11.176-7.309,15.473-9.027l3.439-24.072c0.571-2.578,2.001-3.868,4.299-3.868h36.968c2.289,0,3.721,1.29,4.299,3.869
		l3.438,24.072c5.438,2.297,10.598,5.306,15.475,9.027l22.782-9.028c2.578-0.859,4.439-0.282,5.586,1.72l18.484,31.81
		c1.431,2.578,1.142,4.587-0.86,6.018l-19.343,15.043c0.282,2.009,0.43,5.019,0.43,9.028
		C340.966,242.276,340.818,245.283,340.536,247.286z M249.407,261.041c6.301,6.306,13.896,9.456,22.783,9.456
		c8.877,0,16.475-3.149,22.783-9.456c6.299-6.301,9.456-13.896,9.456-22.783c0-8.878-3.157-16.474-9.456-22.781
		c-6.308-6.299-13.905-9.457-22.784-9.457c-8.886,0-16.482,3.157-22.782,9.456c-6.307,6.308-9.456,13.903-9.456,22.782
		C239.951,247.145,243.101,254.741,249.407,261.041z"/>
</g>
</svg>
